<mxfile host="app.diagrams.net" agent="Mozilla/5.0 (Windows NT 10.0; Win64; x64; rv:135.0) Gecko/20100101 Firefox/135.0" version="26.0.11">
  <diagram name="Page-1" id="c7488fd3-1785-93aa-aadb-54a6760d102a">
    <mxGraphModel dx="957" dy="426" grid="1" gridSize="10" guides="1" tooltips="1" connect="1" arrows="1" fold="1" page="1" pageScale="1" pageWidth="1100" pageHeight="850" background="none" math="0" shadow="0">
      <root>
        <mxCell id="0" />
        <mxCell id="1" parent="0" />
        <mxCell id="2b4e8129b02d487f-1" value="Pool" style="swimlane;html=1;childLayout=stackLayout;horizontal=1;startSize=20;horizontalStack=0;rounded=0;shadow=0;labelBackgroundColor=none;strokeWidth=1;fontFamily=Verdana;fontSize=8;align=center;" parent="1" vertex="1">
          <mxGeometry x="180" y="70" width="1070" height="470" as="geometry" />
        </mxCell>
        <mxCell id="2b4e8129b02d487f-2" value="HubSpot frontend" style="swimlane;html=1;startSize=20;horizontal=0;" parent="2b4e8129b02d487f-1" vertex="1">
          <mxGeometry y="20" width="1070" height="150" as="geometry" />
        </mxCell>
        <mxCell id="2b4e8129b02d487f-3" value="Hubspot backend" style="swimlane;html=1;startSize=20;horizontal=0;" parent="2b4e8129b02d487f-1" vertex="1">
          <mxGeometry y="170" width="1070" height="150" as="geometry" />
        </mxCell>
        <mxCell id="2b4e8129b02d487f-6" value="API response of new inquiries" style="rounded=1;whiteSpace=wrap;html=1;shadow=0;labelBackgroundColor=none;strokeWidth=1;fontFamily=Verdana;fontSize=8;align=center;" parent="2b4e8129b02d487f-3" vertex="1">
          <mxGeometry x="55" y="46.49999999999997" width="70" height="37" as="geometry" />
        </mxCell>
        <mxCell id="2b4e8129b02d487f-18" style="edgeStyle=orthogonalEdgeStyle;rounded=0;html=1;labelBackgroundColor=none;startArrow=none;startFill=0;startSize=5;endArrow=classicThin;endFill=1;endSize=5;jettySize=auto;orthogonalLoop=1;strokeWidth=1;fontFamily=Verdana;fontSize=8" parent="2b4e8129b02d487f-1" source="2b4e8129b02d487f-5" target="2b4e8129b02d487f-6" edge="1">
          <mxGeometry relative="1" as="geometry" />
        </mxCell>
        <mxCell id="2b4e8129b02d487f-24" style="edgeStyle=orthogonalEdgeStyle;rounded=0;html=1;labelBackgroundColor=none;startArrow=none;startFill=0;startSize=5;endArrow=classicThin;endFill=1;endSize=5;jettySize=auto;orthogonalLoop=1;strokeWidth=1;fontFamily=Verdana;fontSize=8;entryX=0.5;entryY=0;entryDx=0;entryDy=0;" parent="2b4e8129b02d487f-1" source="2b4e8129b02d487f-6" target="UMN8CmXKmuf_3cd8Juoa-2" edge="1">
          <mxGeometry relative="1" as="geometry">
            <mxPoint x="180" y="235" as="targetPoint" />
          </mxGeometry>
        </mxCell>
        <mxCell id="2b4e8129b02d487f-4" value="New Solution" style="swimlane;html=1;startSize=20;horizontal=0;" parent="2b4e8129b02d487f-1" vertex="1">
          <mxGeometry y="320" width="1070" height="150" as="geometry" />
        </mxCell>
        <mxCell id="2b4e8129b02d487f-5" value="Batch call" style="ellipse;whiteSpace=wrap;html=1;rounded=0;shadow=0;labelBackgroundColor=none;strokeWidth=1;fontFamily=Verdana;fontSize=8;align=center;" parent="2b4e8129b02d487f-4" vertex="1">
          <mxGeometry x="60" y="50.5" width="60" height="40" as="geometry" />
        </mxCell>
        <mxCell id="UMN8CmXKmuf_3cd8Juoa-4" value="&lt;font style=&quot;font-size: 6px;&quot;&gt;&lt;br&gt;&lt;/font&gt;&lt;div&gt;&lt;font style=&quot;font-size: 6px;&quot;&gt;This way we don&#39;t need to know when are new inquiries.&amp;nbsp;&lt;/font&gt;&lt;/div&gt;&lt;div&gt;&lt;font style=&quot;font-size: 6px;&quot;&gt;It could be done every 30 min, depending on the frequency.&lt;/font&gt;&lt;/div&gt;&lt;font size=&quot;3&quot;&gt;&lt;br&gt;&lt;br&gt;&lt;/font&gt;" style="text;html=1;align=center;verticalAlign=middle;whiteSpace=wrap;rounded=0;" vertex="1" parent="2b4e8129b02d487f-4">
          <mxGeometry x="30" y="100" width="165" height="30" as="geometry" />
        </mxCell>
        <mxCell id="UMN8CmXKmuf_3cd8Juoa-7" style="edgeStyle=orthogonalEdgeStyle;rounded=0;orthogonalLoop=1;jettySize=auto;html=1;" edge="1" parent="2b4e8129b02d487f-4" source="UMN8CmXKmuf_3cd8Juoa-2" target="UMN8CmXKmuf_3cd8Juoa-5">
          <mxGeometry relative="1" as="geometry" />
        </mxCell>
        <mxCell id="UMN8CmXKmuf_3cd8Juoa-2" value="Processing of the inquiry" style="rounded=1;whiteSpace=wrap;html=1;shadow=0;labelBackgroundColor=none;strokeWidth=1;fontFamily=Verdana;fontSize=8;align=center;" vertex="1" parent="2b4e8129b02d487f-4">
          <mxGeometry x="180" y="52" width="70" height="37" as="geometry" />
        </mxCell>
        <mxCell id="UMN8CmXKmuf_3cd8Juoa-9" value="API response of suitable suppliers" style="rounded=1;whiteSpace=wrap;html=1;shadow=0;labelBackgroundColor=none;strokeWidth=1;fontFamily=Verdana;fontSize=8;align=center;" vertex="1" parent="2b4e8129b02d487f-4">
          <mxGeometry x="305" y="-103.5" width="70" height="37" as="geometry" />
        </mxCell>
        <mxCell id="UMN8CmXKmuf_3cd8Juoa-25" value="Email sending" style="rounded=1;whiteSpace=wrap;html=1;shadow=0;labelBackgroundColor=none;strokeWidth=1;fontFamily=Verdana;fontSize=8;align=center;" vertex="1" parent="2b4e8129b02d487f-4">
          <mxGeometry x="530" y="-109" width="70" height="48" as="geometry" />
        </mxCell>
        <mxCell id="UMN8CmXKmuf_3cd8Juoa-8" style="edgeStyle=orthogonalEdgeStyle;rounded=0;orthogonalLoop=1;jettySize=auto;html=1;entryX=0.5;entryY=1;entryDx=0;entryDy=0;" edge="1" parent="2b4e8129b02d487f-4" source="UMN8CmXKmuf_3cd8Juoa-5" target="UMN8CmXKmuf_3cd8Juoa-9">
          <mxGeometry relative="1" as="geometry">
            <mxPoint x="340" y="-40" as="targetPoint" />
          </mxGeometry>
        </mxCell>
        <mxCell id="UMN8CmXKmuf_3cd8Juoa-5" value="API call for suitable suppliers" style="rounded=1;whiteSpace=wrap;html=1;shadow=0;labelBackgroundColor=none;strokeWidth=1;fontFamily=Verdana;fontSize=8;align=center;" vertex="1" parent="2b4e8129b02d487f-4">
          <mxGeometry x="305" y="52" width="70" height="37" as="geometry" />
        </mxCell>
        <mxCell id="UMN8CmXKmuf_3cd8Juoa-6" value="&lt;font style=&quot;font-size: 6px;&quot;&gt;Approved suppliers which can supply the product&lt;/font&gt;&lt;div&gt;&lt;br/&gt;&lt;/div&gt;" style="text;html=1;align=center;verticalAlign=middle;whiteSpace=wrap;rounded=0;" vertex="1" parent="2b4e8129b02d487f-4">
          <mxGeometry x="300" y="90.5" width="80" height="30" as="geometry" />
        </mxCell>
        <mxCell id="UMN8CmXKmuf_3cd8Juoa-14" value="RFQ information" style="swimlane;fontStyle=0;childLayout=stackLayout;horizontal=1;startSize=26;horizontalStack=0;resizeParent=1;resizeParentMax=0;resizeLast=0;collapsible=1;marginBottom=0;align=center;fontSize=14;" vertex="1" parent="2b4e8129b02d487f-4">
          <mxGeometry x="485" y="14" width="160" height="116" as="geometry">
            <mxRectangle x="390" y="12.5" width="60" height="30" as="alternateBounds" />
          </mxGeometry>
        </mxCell>
        <mxCell id="UMN8CmXKmuf_3cd8Juoa-15" value="&lt;div&gt;&lt;font style=&quot;font-size: 8px;&quot;&gt;Product (variation, quantity rel. designs).&lt;/font&gt;&lt;/div&gt;" style="text;strokeColor=none;fillColor=none;spacingLeft=4;spacingRight=4;overflow=hidden;rotatable=0;points=[[0,0.5],[1,0.5]];portConstraint=eastwest;fontSize=12;whiteSpace=wrap;html=1;" vertex="1" parent="UMN8CmXKmuf_3cd8Juoa-14">
          <mxGeometry y="26" width="160" height="30" as="geometry" />
        </mxCell>
        <mxCell id="UMN8CmXKmuf_3cd8Juoa-16" value="&lt;font style=&quot;font-size: 8px;&quot;&gt;Shipment date &amp;amp; address.&lt;/font&gt;" style="text;strokeColor=none;fillColor=none;spacingLeft=4;spacingRight=4;overflow=hidden;rotatable=0;points=[[0,0.5],[1,0.5]];portConstraint=eastwest;fontSize=12;whiteSpace=wrap;html=1;" vertex="1" parent="UMN8CmXKmuf_3cd8Juoa-14">
          <mxGeometry y="56" width="160" height="30" as="geometry" />
        </mxCell>
        <mxCell id="UMN8CmXKmuf_3cd8Juoa-17" value="&lt;font style=&quot;font-size: 8px;&quot;&gt;Max. response date&lt;/font&gt;" style="text;strokeColor=none;fillColor=none;spacingLeft=4;spacingRight=4;overflow=hidden;rotatable=0;points=[[0,0.5],[1,0.5]];portConstraint=eastwest;fontSize=12;whiteSpace=wrap;html=1;" vertex="1" parent="UMN8CmXKmuf_3cd8Juoa-14">
          <mxGeometry y="86" width="160" height="30" as="geometry" />
        </mxCell>
        <mxCell id="UMN8CmXKmuf_3cd8Juoa-22" value="Selection of products for suppliers" style="rounded=1;whiteSpace=wrap;html=1;shadow=0;labelBackgroundColor=none;strokeWidth=1;fontFamily=Verdana;fontSize=8;align=center;" vertex="1" parent="2b4e8129b02d487f-4">
          <mxGeometry x="395" y="52" width="70" height="48" as="geometry" />
        </mxCell>
        <mxCell id="UMN8CmXKmuf_3cd8Juoa-24" style="edgeStyle=orthogonalEdgeStyle;rounded=0;orthogonalLoop=1;jettySize=auto;html=1;entryX=0;entryY=0.2;entryDx=0;entryDy=0;entryPerimeter=0;" edge="1" parent="2b4e8129b02d487f-4" source="UMN8CmXKmuf_3cd8Juoa-22" target="UMN8CmXKmuf_3cd8Juoa-16">
          <mxGeometry relative="1" as="geometry" />
        </mxCell>
        <mxCell id="UMN8CmXKmuf_3cd8Juoa-27" value="Response retrieval and processing" style="rounded=1;whiteSpace=wrap;html=1;shadow=0;labelBackgroundColor=none;strokeWidth=1;fontFamily=Verdana;fontSize=8;align=center;" vertex="1" parent="2b4e8129b02d487f-4">
          <mxGeometry x="675" y="48" width="70" height="48" as="geometry" />
        </mxCell>
        <mxCell id="UMN8CmXKmuf_3cd8Juoa-29" value="&lt;font style=&quot;font-size: 6px;&quot;&gt;OCR / Gen AI&lt;/font&gt;" style="text;html=1;align=center;verticalAlign=middle;whiteSpace=wrap;rounded=0;" vertex="1" parent="2b4e8129b02d487f-4">
          <mxGeometry x="670" y="90.5" width="80" height="20" as="geometry" />
        </mxCell>
        <mxCell id="UMN8CmXKmuf_3cd8Juoa-77" value="Response scoring and evaluation" style="rounded=1;whiteSpace=wrap;html=1;shadow=0;labelBackgroundColor=none;strokeWidth=1;fontFamily=Verdana;fontSize=8;align=center;" vertex="1" parent="2b4e8129b02d487f-4">
          <mxGeometry x="787" y="48" width="70" height="48" as="geometry" />
        </mxCell>
        <mxCell id="UMN8CmXKmuf_3cd8Juoa-62" style="edgeStyle=orthogonalEdgeStyle;rounded=0;orthogonalLoop=1;jettySize=auto;html=1;exitX=1;exitY=0.5;exitDx=0;exitDy=0;entryX=0;entryY=0.5;entryDx=0;entryDy=0;" edge="1" parent="2b4e8129b02d487f-4" source="UMN8CmXKmuf_3cd8Juoa-27" target="UMN8CmXKmuf_3cd8Juoa-77">
          <mxGeometry relative="1" as="geometry">
            <mxPoint x="775" y="80" as="targetPoint" />
          </mxGeometry>
        </mxCell>
        <mxCell id="UMN8CmXKmuf_3cd8Juoa-23" style="edgeStyle=orthogonalEdgeStyle;rounded=0;orthogonalLoop=1;jettySize=auto;html=1;" edge="1" parent="2b4e8129b02d487f-4" source="UMN8CmXKmuf_3cd8Juoa-9" target="UMN8CmXKmuf_3cd8Juoa-22">
          <mxGeometry relative="1" as="geometry" />
        </mxCell>
        <mxCell id="UMN8CmXKmuf_3cd8Juoa-26" style="edgeStyle=orthogonalEdgeStyle;rounded=0;orthogonalLoop=1;jettySize=auto;html=1;entryX=0.5;entryY=1;entryDx=0;entryDy=0;" edge="1" parent="2b4e8129b02d487f-4" source="UMN8CmXKmuf_3cd8Juoa-14" target="UMN8CmXKmuf_3cd8Juoa-25">
          <mxGeometry relative="1" as="geometry" />
        </mxCell>
        <mxCell id="UMN8CmXKmuf_3cd8Juoa-28" style="edgeStyle=orthogonalEdgeStyle;rounded=0;orthogonalLoop=1;jettySize=auto;html=1;" edge="1" parent="2b4e8129b02d487f-4" source="UMN8CmXKmuf_3cd8Juoa-25" target="UMN8CmXKmuf_3cd8Juoa-27">
          <mxGeometry relative="1" as="geometry" />
        </mxCell>
        <mxCell id="UMN8CmXKmuf_3cd8Juoa-30" value="New Solution db" style="swimlane;html=1;startSize=20;horizontal=0;" vertex="1" parent="1">
          <mxGeometry x="180" y="540" width="1070" height="150" as="geometry" />
        </mxCell>
      </root>
    </mxGraphModel>
  </diagram>
</mxfile>
